<?xml version="1.0" standalone="no"?>
<!DOCTYPE svg PUBLIC "-//W3C//DTD SVG 20010904//EN"
 "http://www.w3.org/TR/2001/REC-SVG-20010904/DTD/svg10.dtd">
<svg version="1.0" xmlns="http://www.w3.org/2000/svg"
 width="2880.000000pt" height="2880.000000pt" viewBox="0 0 2880.000000 2880.000000"
 preserveAspectRatio="xMidYMid meet">
<metadata>
Created by potrace 1.14, written by Peter Selinger 2001-2017
</metadata>
<g transform="translate(0.000000,2880.000000) scale(0.100000,-0.100000)"
fill="#000000" stroke="none">
<path d="M4997 21913 c-2 -1 -39 -5 -82 -8 -79 -6 -117 -10 -165 -18 -67 -12
-165 -34 -165 -37 0 -2 -36 -10 -57 -12 -10 -1 -18 -5 -18 -8 0 -4 -7 -7 -15
-7 -14 0 -80 -25 -117 -44 -10 -5 -25 -9 -33 -9 -8 0 -15 -5 -15 -12 0 -6 -3
-9 -6 -5 -4 3 -21 -1 -38 -10 -17 -9 -37 -18 -45 -19 -8 -2 -18 -9 -22 -16 -5
-7 -9 -8 -9 -3 0 6 -7 1 -15 -9 -8 -11 -15 -17 -15 -13 0 4 -15 -2 -32 -13
-18 -11 -43 -24 -55 -30 -13 -5 -23 -15 -23 -21 0 -7 -3 -10 -6 -6 -3 3 -11 2
-18 -3 -6 -5 -42 -33 -81 -62 -98 -73 -99 -74 -195 -168 -152 -149 -281 -336
-383 -553 -21 -43 -37 -82 -37 -88 0 -5 -4 -17 -10 -27 -24 -43 -86 -276 -104
-394 -22 -142 -29 -438 -14 -581 19 -177 121 -300 293 -355 38 -12 213 -13
221 -1 3 5 12 9 21 9 34 0 140 60 184 104 78 79 118 183 113 296 -6 131 -6
262 0 315 9 73 52 255 73 304 35 80 76 167 86 179 7 9 25 -22 67 -111 86 -186
325 -657 350 -692 4 -5 22 -37 40 -70 61 -112 77 -140 165 -290 88 -151 159
-267 220 -360 18 -27 55 -86 83 -130 28 -44 56 -87 64 -96 17 -21 36 -50 45
-69 4 -8 9 -17 12 -20 4 -3 27 -36 53 -75 84 -126 150 -220 169 -241 11 -11
19 -24 19 -28 0 -4 6 -14 13 -21 18 -21 26 -32 87 -115 30 -41 58 -79 63 -85
4 -5 35 -46 68 -90 33 -44 68 -89 77 -100 9 -11 55 -68 101 -128 46 -59 88
-107 92 -107 5 0 9 -5 9 -11 0 -8 61 -85 115 -144 6 -7 28 -33 50 -60 22 -27
49 -58 60 -71 11 -12 40 -45 65 -74 52 -60 64 -74 180 -201 141 -154 257 -275
416 -433 179 -179 368 -358 510 -482 38 -32 81 -72 98 -87 16 -15 45 -40 64
-55 19 -15 55 -45 80 -67 25 -22 54 -46 66 -54 12 -8 23 -18 26 -21 4 -5 70
-58 205 -165 21 -16 42 -32 47 -34 5 -1 25 -18 46 -36 20 -19 40 -32 44 -29 4
3 8 0 8 -5 0 -9 16 -22 98 -76 16 -11 40 -30 71 -57 11 -9 22 -14 25 -10 3 3
6 0 6 -6 0 -7 6 -12 14 -12 8 0 16 -3 18 -7 2 -5 32 -28 68 -53 36 -24 67 -48
68 -52 2 -4 9 -8 16 -8 7 0 21 -9 31 -20 9 -10 20 -18 24 -17 3 1 27 -13 53
-31 26 -17 51 -32 57 -32 6 0 11 -4 11 -8 0 -5 12 -15 28 -23 15 -7 53 -31 85
-52 31 -21 57 -35 57 -32 0 4 7 -1 16 -9 8 -9 20 -14 25 -11 5 4 9 1 9 -5 0
-6 8 -14 18 -18 29 -12 117 -66 120 -74 2 -4 8 -8 12 -8 5 0 44 -21 87 -47
112 -69 116 -71 133 -79 8 -4 48 -27 88 -51 41 -24 78 -43 83 -43 5 0 9 -4 9
-10 0 -5 9 -10 20 -10 11 0 20 -4 20 -8 0 -5 16 -14 35 -22 19 -8 35 -18 35
-22 0 -5 5 -6 10 -3 5 3 10 1 10 -5 0 -6 4 -9 9 -5 5 3 12 1 16 -4 3 -6 52
-33 108 -61 56 -29 108 -56 115 -62 6 -6 12 -7 12 -3 0 4 6 3 13 -3 14 -12
175 -93 179 -90 2 1 28 -13 59 -30 31 -17 59 -29 61 -26 3 2 11 -2 18 -11 7
-8 16 -15 21 -15 5 0 34 -12 66 -27 32 -14 61 -27 66 -28 4 -2 10 -4 15 -5 4
-1 10 -2 15 -1 4 0 7 -3 7 -8 0 -9 48 -26 63 -23 4 1 7 -2 7 -8 0 -5 5 -10 11
-10 5 0 35 -11 64 -25 30 -13 66 -27 80 -31 14 -3 25 -10 25 -15 0 -5 3 -8 8
-8 4 1 9 0 12 -1 3 -1 12 -3 20 -5 18 -5 139 -53 160 -64 8 -4 36 -14 63 -22
26 -7 47 -17 47 -21 0 -4 9 -8 20 -8 11 0 28 -4 38 -9 16 -9 47 -21 65 -26 4
-2 9 -4 12 -5 3 -1 8 -3 13 -5 4 -1 15 -5 24 -9 9 -4 22 -9 30 -10 7 -2 20 -6
28 -9 8 -3 58 -20 110 -37 52 -17 102 -34 110 -37 18 -7 13 -6 70 -23 25 -7
51 -13 58 -13 6 0 12 -5 12 -10 0 -6 3 -7 7 -4 3 4 12 2 20 -4 7 -6 13 -9 13
-6 0 4 19 -1 42 -9 23 -8 55 -17 72 -20 17 -3 33 -8 36 -12 3 -4 14 -7 25 -7
11 0 29 -4 40 -9 11 -6 25 -11 30 -12 12 -2 65 -14 80 -17 6 -2 16 -6 23 -10
6 -5 16 -6 21 -2 5 3 13 0 16 -6 4 -5 13 -8 21 -5 7 3 16 1 19 -5 4 -5 10 -7
15 -4 5 3 12 0 15 -6 4 -5 13 -8 21 -5 7 3 16 1 19 -5 4 -5 11 -7 16 -3 5 3
15 2 22 -3 7 -5 26 -10 42 -12 17 -2 35 -6 40 -10 6 -4 26 -8 45 -10 19 -2 37
-6 40 -10 5 -6 13 -7 68 -13 12 -1 22 -5 22 -8 0 -3 15 -6 33 -7 30 -3 72 -10
72 -13 0 -1 11 -3 25 -6 39 -7 71 -13 124 -24 26 -5 52 -7 57 -4 5 3 9 1 9 -4
0 -5 16 -9 35 -10 20 -1 39 -4 44 -6 4 -3 27 -8 52 -11 71 -10 73 -10 87 -18
7 -5 12 -3 12 3 0 8 6 8 20 0 12 -6 45 -12 75 -13 30 -1 55 -4 55 -7 0 -3 15
-7 33 -9 32 -3 62 -6 128 -15 20 -3 58 -7 84 -10 25 -3 51 -9 57 -12 7 -4 8
-2 4 4 -5 8 2 8 24 1 17 -6 37 -9 45 -5 8 3 16 2 19 -2 3 -4 20 -7 38 -7 18 1
41 -2 52 -8 14 -7 16 -6 11 4 -6 8 -4 10 6 4 7 -5 32 -10 54 -10 23 -1 47 -5
53 -9 7 -4 12 -2 12 5 0 7 4 8 13 2 6 -5 33 -8 60 -8 26 1 47 -2 47 -5 0 -9
64 -5 80 5 7 5 11 4 7 -1 -5 -9 67 -14 255 -17 49 -1 88 -6 88 -10 0 -5 6 -5
12 -1 19 12 48 12 48 0 0 -7 3 -7 8 -1 8 12 92 14 92 2 0 -4 6 -5 12 -1 19 12
48 12 48 0 0 -7 3 -7 8 -1 8 12 92 14 92 2 0 -4 6 -5 12 -1 7 5 69 9 138 10
69 2 172 5 230 9 58 3 139 8 180 10 41 2 75 4 75 5 0 1 18 3 40 4 23 1 47 6
54 11 10 6 12 4 6 -5 -6 -9 -4 -11 4 -5 7 4 34 9 59 10 66 5 160 14 207 22 22
3 56 7 75 8 19 2 35 4 35 5 0 1 18 3 40 5 22 1 40 4 40 5 0 1 14 4 30 5 17 2
53 7 80 11 28 3 59 8 70 9 11 2 20 4 20 5 0 1 16 3 35 5 19 2 35 4 35 5 0 1
11 3 25 5 14 2 36 6 50 9 14 4 43 9 65 11 22 3 60 9 85 15 25 5 56 12 70 14
14 3 36 8 50 11 14 3 41 8 60 11 19 3 53 10 75 16 22 6 51 12 65 14 14 1 50 9
80 18 30 8 56 13 59 11 2 -3 10 0 18 6 7 6 13 9 13 6 0 -2 37 6 82 19 45 12
86 20 90 18 4 -3 8 0 8 7 0 7 3 10 6 7 3 -4 20 -2 37 3 18 6 42 12 54 15 12 2
33 8 45 13 13 5 26 9 31 10 12 2 21 4 77 20 25 7 50 14 55 15 8 2 46 13 105
31 3 1 19 5 35 10 17 4 35 11 40 15 6 5 24 11 40 14 17 3 77 22 135 42 58 20
111 36 118 37 6 0 12 4 12 9 0 4 3 7 8 6 8 -2 48 9 77 22 35 16 139 52 153 53
6 0 12 4 12 9 0 4 3 7 8 6 4 -1 23 4 42 11 19 8 38 15 43 16 4 1 8 3 10 5 1 1
11 3 21 5 10 2 22 9 26 15 4 7 9 10 11 9 8 -5 109 35 109 44 0 4 4 6 9 3 5 -3
21 1 37 9 28 13 84 37 94 40 3 0 16 7 30 15 14 7 26 13 28 11 1 -1 28 11 60
25 31 15 62 28 67 30 31 7 518 245 526 257 3 5 9 8 13 8 3 -1 30 11 59 26 28
15 54 27 57 28 3 1 21 11 40 23 19 12 40 22 47 22 6 0 13 3 15 8 2 4 33 23 71
42 37 19 67 38 67 43 0 4 4 6 9 3 4 -3 19 3 32 14 12 12 33 23 46 26 13 4 23
10 23 14 0 4 8 10 18 13 23 8 75 40 84 52 4 6 8 6 8 1 0 -4 15 3 34 18 19 14
39 26 43 26 5 0 18 8 29 18 10 9 33 24 49 32 17 8 32 18 35 21 3 3 28 19 55
35 28 15 56 34 63 41 6 6 21 15 32 18 11 3 20 11 20 16 0 6 5 7 10 4 6 -3 10
-2 10 2 0 5 16 17 35 27 19 11 35 23 35 28 0 5 4 7 9 3 6 -3 14 3 20 12 6 10
11 14 11 8 0 -6 3 -6 8 1 4 5 24 20 45 33 21 13 43 28 50 35 6 7 33 25 60 40
26 15 47 31 47 35 0 4 11 13 25 19 14 7 31 17 38 22 7 6 41 32 77 58 36 26 67
50 68 54 2 5 8 8 14 8 5 0 16 6 23 13 21 18 34 28 95 72 30 22 63 48 72 58 10
9 21 17 26 17 4 0 25 16 47 35 22 19 45 38 50 43 50 37 130 100 149 117 31 27
203 172 220 185 11 8 32 27 47 43 16 15 31 27 33 27 3 0 18 12 34 28 16 15 69
63 117 107 49 44 123 112 164 150 109 101 482 477 576 579 44 49 91 100 105
115 31 33 133 149 189 215 23 27 48 54 54 61 7 6 28 31 47 55 19 24 40 48 45
54 98 102 556 707 720 951 22 33 43 62 48 63 4 2 7 10 7 18 0 8 5 14 10 14 6
0 10 6 10 13 0 7 9 23 20 35 11 12 20 24 20 27 0 6 41 66 51 75 3 3 9 12 12
20 4 8 32 53 62 100 156 239 423 702 571 988 42 81 80 152 85 158 5 6 7 13 4
16 -3 3 1 11 10 18 8 7 15 16 15 20 0 4 36 82 80 174 44 91 80 170 81 174 1 4
11 25 22 47 12 22 21 43 22 47 3 57 97 -129 136 -272 39 -142 48 -227 45 -410
-3 -184 3 -230 46 -314 19 -38 138 -167 138 -150 0 5 4 4 8 -2 11 -15 113 -57
147 -59 17 -2 32 -4 35 -5 13 -6 125 2 140 10 10 5 20 6 24 3 3 -3 6 -1 6 6 0
7 4 9 10 6 5 -3 24 2 42 11 166 86 256 292 256 584 0 91 -4 139 -22 260 -27
174 -119 454 -197 599 -16 30 -29 61 -29 68 0 7 -4 13 -9 13 -5 0 -13 9 -16
21 -13 39 -115 193 -194 294 -90 114 -218 240 -336 333 -29 23 -106 73 -146
95 -85 48 -139 75 -139 72 0 -3 -21 6 -47 20 -26 13 -51 21 -55 19 -4 -3 -8 0
-8 6 0 6 -4 8 -10 5 -5 -3 -10 -2 -10 2 0 5 -9 9 -19 10 -11 1 -41 9 -68 18
-26 9 -52 18 -58 19 -94 21 -133 29 -145 29 -8 0 -19 3 -25 7 -5 4 -25 6 -43
5 -18 -1 -35 1 -37 4 -2 4 -24 6 -49 6 -25 -1 -46 2 -46 5 0 8 -204 6 -217 -3
-8 -5 -13 -4 -13 3 0 6 -10 8 -22 5 -13 -3 -48 -7 -79 -9 -31 -1 -60 -5 -65
-8 -5 -2 -26 -4 -46 -4 -21 1 -38 -1 -38 -4 0 -4 -10 -7 -22 -7 -50 -4 -78 -8
-78 -13 0 -3 -8 -6 -17 -6 -26 -2 -79 -13 -105 -23 -13 -5 -25 -8 -28 -8 -4 0
-79 -22 -130 -38 -3 -1 -14 -5 -25 -10 -63 -25 -86 -34 -93 -35 -4 -1 -13 -6
-19 -12 -7 -6 -13 -7 -13 -3 0 4 -7 1 -16 -6 -9 -7 -21 -14 -28 -15 -6 -1 -35
-16 -64 -33 -29 -17 -55 -31 -58 -31 -3 0 -25 -13 -49 -30 -24 -16 -47 -30
-51 -30 -3 0 -14 -8 -23 -18 -9 -10 -26 -25 -39 -34 -49 -33 -132 -119 -178
-184 -150 -210 -102 -462 115 -598 21 -14 42 -22 45 -19 3 4 6 2 6 -3 0 -28
223 -47 280 -24 3 1 8 2 13 1 4 0 7 4 7 11 0 6 3 9 6 5 7 -7 60 18 87 41 9 8
17 12 17 9 0 -3 17 9 38 28 42 39 261 172 276 167 5 -2 12 2 16 8 3 6 16 12
28 15 11 2 29 8 40 14 11 6 22 7 26 4 3 -3 6 -1 6 6 0 7 6 11 14 8 8 -3 17 -3
21 1 4 4 11 8 16 8 5 1 10 2 12 4 25 20 367 57 367 39 0 -3 11 -4 25 -1 27 5
31 -6 16 -36 -5 -9 -46 -98 -91 -197 -93 -205 -290 -593 -405 -800 -43 -77
-85 -151 -92 -165 -8 -14 -23 -38 -33 -55 -11 -16 -29 -47 -40 -68 -11 -21
-51 -86 -87 -145 -37 -59 -71 -116 -78 -127 -65 -119 -525 -789 -565 -825 -3
-3 -17 -21 -30 -40 -32 -46 -33 -47 -80 -103 -22 -27 -40 -51 -40 -55 0 -4
-13 -20 -28 -37 -15 -16 -43 -50 -62 -75 -19 -25 -42 -54 -52 -65 -9 -11 -43
-51 -75 -90 -32 -38 -67 -81 -78 -94 -68 -82 -109 -128 -127 -143 -11 -10 -18
-18 -15 -18 4 0 -4 -10 -16 -23 -12 -13 -58 -63 -102 -111 -44 -49 -101 -111
-127 -138 -25 -26 -45 -48 -43 -48 5 0 -321 -324 -438 -435 -184 -174 -287
-265 -300 -265 -5 0 -5 -4 -2 -10 3 -5 3 -10 -2 -10 -4 0 -21 -12 -38 -26 -16
-14 -47 -40 -69 -57 -21 -18 -53 -45 -71 -62 -18 -16 -42 -37 -53 -45 -39 -29
-106 -85 -124 -102 -10 -10 -22 -18 -27 -18 -6 0 -17 -10 -25 -22 -9 -12 -16
-19 -16 -15 0 5 -7 1 -16 -7 -8 -9 -43 -37 -77 -63 -34 -26 -67 -52 -74 -58
-7 -5 -19 -16 -27 -22 -8 -7 -19 -13 -25 -13 -5 0 -11 -4 -13 -8 -5 -13 -126
-102 -137 -102 -6 0 -11 -4 -11 -8 0 -4 -13 -16 -30 -25 -16 -10 -35 -23 -42
-30 -7 -7 -33 -25 -58 -42 -25 -16 -46 -33 -48 -37 -2 -5 -10 -8 -17 -8 -7 0
-15 -3 -17 -7 -4 -9 -65 -53 -73 -53 -3 0 -11 -4 -18 -10 -58 -47 -77 -61 -77
-55 0 4 -13 -5 -30 -18 -16 -14 -39 -28 -50 -32 -11 -3 -20 -11 -20 -16 0 -5
-7 -9 -15 -9 -8 0 -15 -4 -15 -10 0 -5 -3 -9 -7 -8 -5 1 -46 -23 -94 -53 -47
-31 -89 -58 -95 -60 -5 -2 -25 -14 -44 -26 -19 -12 -39 -22 -44 -22 -5 1 -12
-4 -15 -9 -6 -10 -54 -39 -140 -84 -30 -15 -57 -31 -60 -36 -4 -4 -37 -23 -76
-43 -118 -62 -140 -74 -145 -79 -3 -3 -12 -6 -20 -8 -8 -2 -16 -8 -18 -13 -2
-5 -12 -9 -22 -9 -10 0 -20 -3 -22 -7 -3 -8 -158 -87 -170 -88 -4 0 -13 -6
-19 -12 -7 -7 -21 -13 -31 -13 -10 0 -18 -4 -18 -8 0 -6 -37 -25 -70 -36 -3
-1 -43 -20 -90 -42 -47 -22 -121 -56 -165 -75 -44 -19 -81 -37 -83 -41 -2 -5
-12 -8 -21 -8 -10 0 -21 -3 -25 -7 -4 -5 -11 -8 -14 -9 -4 0 -20 -6 -35 -12
-16 -7 -52 -22 -80 -33 -29 -12 -66 -28 -84 -35 -17 -8 -38 -14 -47 -14 -9 0
-16 -5 -16 -11 0 -6 -7 -9 -15 -5 -8 3 -15 1 -15 -5 0 -6 -4 -7 -10 -4 -5 3
-10 1 -10 -5 0 -6 -4 -9 -8 -6 -4 2 -21 -2 -37 -9 -58 -27 -194 -73 -199 -67
-3 3 -6 0 -6 -6 0 -7 -8 -12 -19 -12 -10 0 -35 -7 -55 -15 -20 -8 -36 -12 -36
-8 0 5 -4 2 -8 -4 -4 -7 -17 -14 -27 -16 -11 -1 -26 -6 -32 -10 -7 -5 -17 -5
-23 -2 -5 3 -10 2 -10 -2 0 -6 -98 -40 -142 -49 -5 -1 -9 -2 -10 -4 -2 -1 -10
-3 -18 -5 -64 -17 -106 -31 -110 -35 -3 -3 -12 -5 -20 -5 -8 1 -29 -5 -46 -12
-17 -7 -34 -9 -38 -6 -3 4 -6 0 -6 -7 0 -7 -3 -11 -6 -7 -3 3 -25 0 -49 -8
-24 -7 -46 -10 -49 -7 -4 3 -6 0 -6 -7 0 -7 -4 -10 -8 -7 -4 2 -38 -4 -75 -14
-37 -10 -67 -16 -67 -13 0 3 -7 0 -15 -7 -8 -6 -19 -9 -24 -6 -5 4 -13 2 -16
-4 -4 -6 -15 -8 -26 -5 -11 4 -19 2 -19 -5 0 -7 -6 -10 -14 -7 -8 3 -17 3 -20
-1 -4 -3 -12 -7 -19 -8 -7 -1 -30 -6 -52 -9 -52 -9 -70 -13 -70 -15 0 -2 -33
-9 -70 -14 -16 -3 -30 -5 -30 -6 0 -2 -14 -5 -60 -13 -16 -3 -42 -8 -56 -11
-14 -3 -41 -8 -60 -10 -19 -3 -35 -6 -36 -7 -7 -5 -132 -23 -155 -22 -10 0
-18 -2 -18 -6 0 -3 -15 -7 -32 -8 -42 -3 -113 -11 -113 -13 0 -1 -18 -3 -41
-4 -22 -2 -45 -5 -50 -7 -5 -3 -27 -7 -49 -9 -59 -4 -90 -8 -90 -10 0 -1 -22
-3 -50 -5 -64 -5 -160 -14 -160 -15 0 -2 -177 -12 -232 -14 -29 0 -53 -4 -53
-9 0 -4 -8 -3 -18 2 -11 6 -24 6 -35 0 -12 -7 -17 -6 -17 1 0 7 -5 8 -12 3 -7
-4 -145 -8 -305 -8 -272 -1 -293 0 -293 16 0 10 5 21 10 24 6 3 10 13 10 20 0
11 171 453 209 540 5 11 21 52 36 90 15 39 34 84 41 100 7 17 72 179 144 360
73 182 137 336 142 343 6 6 8 12 5 12 -5 0 4 24 43 115 5 11 16 43 26 70 10
28 21 55 24 60 4 6 12 24 18 40 5 17 31 84 57 150 73 187 179 476 189 510 1 6
21 66 43 135 34 103 104 339 119 400 71 302 93 486 89 740 -3 217 -16 323 -61
508 -71 293 -215 633 -373 882 -38 60 -74 115 -80 122 -6 7 -32 42 -58 78 -26
36 -50 67 -53 70 -4 3 -37 41 -75 84 -95 110 -285 292 -333 320 -9 5 -26 19
-39 30 -35 33 -52 46 -58 46 -4 0 -13 6 -20 13 -30 26 -44 37 -50 37 -6 0 -66
41 -75 51 -3 3 -25 16 -50 30 -25 13 -47 27 -50 30 -5 7 -245 132 -245 128 0
-1 -19 8 -42 20 -24 12 -43 19 -43 16 0 -3 -16 4 -37 15 -20 10 -40 17 -45 14
-4 -3 -8 -1 -8 3 0 7 -57 29 -100 39 -3 0 -16 5 -30 11 -30 13 -92 28 -102 25
-5 -1 -8 3 -8 9 0 6 -6 9 -12 6 -7 -2 -24 0 -38 6 -29 11 -42 14 -90 21 -19 3
-37 6 -40 7 -3 1 -9 3 -15 4 -5 2 -12 4 -15 5 -9 3 -45 10 -85 15 -22 3 -51 7
-65 9 -52 8 -157 19 -202 20 -26 1 -50 5 -54 9 -4 4 -13 2 -20 -4 -8 -7 -14
-7 -19 1 -5 8 -11 8 -21 -1 -8 -6 -14 -7 -14 -2 0 11 -41 9 -59 -1 -5 -4 -12
-2 -15 3 -6 9 -61 6 -78 -5 -7 -5 -8 -2 -3 6 5 8 4 11 -3 6 -6 -3 -44 -9 -84
-11 -103 -7 -210 -20 -258 -31 -14 -3 -41 -7 -60 -9 -19 -2 -46 -7 -60 -11
-14 -3 -35 -7 -47 -8 -13 0 -23 -5 -23 -9 0 -5 -4 -6 -9 -2 -5 3 -12 1 -15 -4
-4 -5 -14 -8 -24 -6 -9 1 -28 -3 -42 -10 -14 -7 -30 -10 -37 -8 -6 2 -14 -1
-18 -6 -3 -6 -15 -11 -25 -11 -10 0 -31 -5 -47 -12 -15 -7 -32 -13 -38 -13 -5
-1 -19 -6 -30 -10 -108 -43 -134 -52 -139 -47 -3 3 -6 0 -6 -6 0 -7 -3 -11 -7
-10 -14 4 -256 -111 -261 -124 -2 -4 -9 -8 -16 -8 -7 0 -41 -17 -76 -37 -35
-21 -66 -38 -69 -37 -3 0 -15 -8 -25 -18 -11 -10 -25 -18 -32 -18 -7 0 -14 -3
-16 -7 -2 -5 -23 -21 -48 -38 -25 -16 -50 -34 -56 -40 -6 -5 -22 -17 -34 -25
-12 -8 -28 -19 -34 -25 -6 -5 -41 -35 -76 -65 -81 -68 -179 -167 -245 -245
-27 -33 -52 -62 -55 -65 -13 -13 -70 -92 -115 -160 -28 -41 -52 -77 -55 -80
-7 -7 -70 -110 -70 -115 0 -2 -21 -41 -48 -87 -54 -93 -149 -285 -212 -428
-23 -52 -55 -123 -71 -158 -16 -34 -29 -68 -29 -75 0 -7 -4 -17 -8 -23 -5 -5
-35 -74 -67 -154 -31 -80 -63 -158 -70 -175 -15 -34 -83 -212 -191 -500 -41
-110 -80 -211 -85 -225 -6 -14 -22 -56 -36 -95 -13 -38 -28 -79 -33 -90 -5
-11 -41 -105 -80 -210 -38 -104 -74 -198 -80 -207 -5 -10 -10 -25 -10 -34 0
-9 -6 -28 -14 -42 -14 -27 -113 -283 -121 -312 -2 -8 -45 -121 -95 -252 l-92
-236 -34 20 c-19 11 -34 24 -34 29 0 5 -7 9 -15 9 -8 0 -15 5 -15 12 0 6 -3 9
-6 5 -5 -5 -33 15 -69 50 -7 7 -15 9 -19 6 -3 -3 -8 2 -12 11 -3 9 -10 16 -15
16 -12 0 -180 127 -196 148 -7 9 -13 12 -13 6 0 -5 -5 -1 -11 9 -5 9 -16 17
-24 17 -7 0 -15 3 -17 8 -1 4 -23 23 -48 42 -74 57 -82 64 -102 83 -10 9 -20
17 -23 17 -3 0 -13 8 -24 18 -10 9 -33 29 -52 45 -61 49 -84 68 -116 98 -18
16 -35 29 -37 29 -3 0 -25 19 -50 43 -25 23 -66 60 -92 82 -26 22 -69 61 -95
86 -27 25 -49 44 -49 43 0 -12 -535 519 -650 645 -226 247 -270 297 -287 320
-8 12 -24 32 -36 44 -77 81 -299 359 -485 607 -100 135 -187 250 -192 257 -6
7 -10 15 -10 18 0 3 -4 11 -10 18 -42 52 -60 76 -60 81 0 3 -27 44 -60 91 -33
47 -60 90 -60 95 0 4 -4 10 -8 12 -7 3 -49 67 -219 336 -18 29 -33 55 -33 58
0 3 -13 25 -30 49 -16 24 -30 48 -30 54 0 6 -4 11 -10 11 -5 0 -10 4 -10 10 0
5 -32 63 -70 130 -39 66 -85 148 -103 181 -18 33 -49 93 -70 132 -93 175 -327
648 -327 661 0 3 -15 37 -34 76 -19 38 -34 70 -33 71 24 11 165 13 237 4 62
-8 85 -12 85 -15 0 -1 9 -3 20 -4 11 -2 36 -7 55 -11 19 -5 38 -9 42 -9 3 -1
10 -4 14 -8 4 -5 16 -8 26 -8 10 0 26 -4 36 -9 17 -10 52 -24 62 -25 9 -1 104
-50 110 -56 3 -3 19 -12 35 -20 17 -8 32 -17 35 -20 3 -3 31 -22 62 -43 31
-21 67 -47 79 -58 63 -55 149 -91 225 -94 28 -1 56 -5 62 -9 7 -4 12 -3 12 1
0 5 10 10 23 11 39 4 56 8 63 15 4 4 15 7 24 7 10 0 23 7 30 15 7 8 15 13 19
10 4 -2 37 23 74 56 146 132 191 323 113 484 -35 73 -75 121 -142 171 -21 16
-43 35 -47 41 -4 7 -14 13 -22 13 -7 0 -15 4 -17 8 -1 5 -37 30 -78 56 -41 27
-88 57 -104 69 -16 11 -36 20 -43 20 -7 0 -13 4 -13 9 0 4 -7 8 -15 8 -8 0
-15 5 -15 10 0 6 -9 10 -20 10 -11 0 -20 5 -20 10 0 6 -9 10 -20 10 -11 0 -20
5 -20 10 0 5 -3 9 -7 8 -5 -1 -19 4 -33 12 -14 7 -26 13 -27 12 -2 -1 -23 7
-49 18 -25 11 -51 20 -58 20 -7 0 -16 4 -22 9 -5 6 -20 12 -34 14 -14 3 -37
10 -51 15 -15 6 -30 8 -33 5 -3 -4 -6 -2 -6 3 0 5 -14 11 -31 12 -18 1 -37 6
-43 9 -6 4 -20 9 -31 11 -34 5 -60 10 -60 12 0 4 -126 19 -210 25 -89 7 -205
11 -208 8z m5973 -2891 c0 -5 -7 -17 -15 -28 -14 -18 -14 -17 -4 9 12 27 19
34 19 19z m-45 -82 c-9 -16 -18 -30 -21 -30 -2 0 2 14 11 30 9 17 18 30 21 30
2 0 -2 -13 -11 -30z"/>
<path d="M12918 10815 c-2 -3 -24 -7 -49 -10 -24 -3 -55 -7 -69 -9 -41 -6
-143 -18 -176 -20 -16 -1 -34 -5 -40 -8 -5 -3 -17 -4 -26 -3 -10 2 -18 0 -18
-3 0 -6 -73 -12 -192 -16 -27 0 -48 -3 -48 -6 0 -3 -35 -6 -78 -8 -155 -5
-187 -8 -199 -15 -8 -5 -13 -3 -13 3 0 7 -6 8 -17 2 -10 -5 -30 -7 -45 -6 -16
2 -33 -5 -45 -18 -16 -18 -18 -40 -17 -257 1 -130 5 -371 9 -536 12 -509 12
-603 -5 -620 -13 -13 -23 -6 -85 55 -39 39 -86 80 -105 92 -19 12 -37 25 -40
28 -9 11 -139 70 -155 70 -8 0 -15 4 -15 8 0 5 -6 9 -12 9 -21 1 -67 11 -76
17 -5 3 -28 6 -51 7 -23 2 -44 5 -46 8 -8 13 -372 0 -395 -14 -3 -2 -25 -6
-50 -10 -24 -4 -52 -11 -62 -16 -10 -5 -18 -7 -18 -5 0 3 -19 -2 -42 -10 -24
-9 -48 -17 -54 -18 -7 -1 -18 -7 -25 -13 -8 -6 -16 -11 -19 -11 -15 2 -50 -15
-50 -24 0 -6 -3 -9 -6 -5 -7 6 -43 -12 -116 -59 -207 -134 -383 -356 -476
-599 -40 -106 -45 -118 -47 -130 -2 -5 -10 -41 -19 -80 -23 -96 -24 -102 -32
-170 -3 -33 -8 -73 -10 -90 -6 -51 -6 -277 0 -327 3 -27 8 -69 11 -95 11 -92
43 -237 65 -288 4 -11 14 -36 20 -55 70 -195 206 -389 376 -540 44 -39 164
-121 164 -113 0 5 4 4 8 -2 10 -14 92 -58 92 -49 0 4 9 -1 20 -11 11 -10 20
-15 20 -11 0 4 10 1 23 -6 12 -6 28 -13 35 -15 23 -6 37 -10 52 -16 8 -4 26
-9 40 -11 14 -3 42 -9 62 -15 20 -5 39 -6 42 -4 2 3 10 1 17 -3 21 -13 57 -15
224 -15 141 0 215 4 223 11 1 1 11 4 22 5 11 1 22 4 25 5 9 4 19 7 63 15 23 4
45 12 48 16 3 5 10 7 15 4 5 -4 9 -1 9 5 0 6 4 9 8 6 12 -7 145 61 217 112 33
22 85 63 115 91 30 28 58 50 63 51 14 0 25 -45 26 -120 3 -144 14 -172 76
-186 43 -9 685 -11 685 -1 0 4 8 4 18 -1 9 -5 26 -6 37 -2 11 4 28 3 38 -2 9
-5 17 -5 17 -1 0 4 19 9 42 10 23 2 45 8 49 15 8 12 6 53 -6 161 -3 26 -7 68
-10 95 -5 46 -10 109 -19 247 -6 85 -16 343 -22 538 -5 187 -5 1192 0 1422 11
509 36 1028 61 1285 3 25 7 70 10 100 2 30 7 75 10 100 5 36 2 50 -12 65 -18
20 -37 28 -45 20z m-1437 -2089 c20 -3 48 -10 62 -15 14 -5 28 -7 31 -4 3 4 6
2 6 -3 0 -6 16 -16 35 -23 19 -7 35 -17 35 -22 0 -5 4 -8 9 -6 15 4 104 -77
148 -137 130 -177 149 -404 50 -604 -38 -78 -193 -243 -211 -225 -3 4 -6 1 -6
-6 0 -7 -4 -10 -9 -7 -5 4 -11 1 -13 -4 -2 -6 -10 -12 -18 -14 -8 -2 -27 -8
-43 -14 -15 -6 -42 -14 -60 -16 -17 -2 -42 -7 -55 -10 -13 -3 -33 -1 -46 4
-12 4 -29 5 -36 0 -7 -4 -25 -4 -39 1 -14 4 -38 10 -52 12 -15 1 -57 18 -94
37 -117 60 -223 197 -260 340 -33 123 -18 309 32 420 42 94 136 205 196 232
15 7 27 16 27 19 0 4 10 10 23 14 12 4 27 9 32 10 74 26 177 34 256 21z"/>
<path d="M15097 10793 c-1 -1 -36 -4 -77 -7 -41 -2 -86 -7 -100 -10 -14 -3
-41 -8 -60 -10 -29 -4 -70 -12 -145 -30 -52 -13 -103 -30 -114 -39 -12 -10
-13 -9 -7 2 6 8 0 7 -18 -4 -14 -10 -26 -14 -26 -10 0 4 -6 2 -13 -4 -8 -6
-17 -8 -20 -4 -4 3 -7 1 -7 -5 0 -7 -6 -12 -12 -12 -11 0 -70 -29 -235 -113
-13 -7 -23 -15 -23 -19 0 -5 -7 -8 -15 -8 -8 0 -15 -4 -15 -10 0 -5 -5 -10
-11 -10 -6 0 -17 -6 -24 -12 -31 -28 -44 -38 -50 -38 -4 0 -12 -6 -19 -12 -7
-7 -32 -29 -56 -48 -63 -50 -270 -263 -270 -276 0 -3 -9 -15 -21 -27 -69 -74
-208 -308 -270 -457 -127 -302 -174 -556 -173 -930 1 -277 34 -491 113 -726
42 -129 109 -282 137 -314 7 -8 13 -18 13 -23 1 -12 111 -185 136 -214 5 -6
21 -26 35 -44 61 -80 208 -232 276 -284 21 -16 53 -42 70 -57 17 -16 36 -28
42 -28 6 0 12 -3 14 -7 4 -10 65 -53 74 -53 4 0 15 -6 23 -14 27 -22 149 -85
155 -78 3 3 6 1 6 -5 0 -10 46 -28 63 -25 4 1 7 -3 7 -8 0 -6 8 -10 18 -10 10
0 22 -4 28 -10 5 -5 18 -11 29 -13 11 -2 27 -6 35 -10 8 -3 24 -8 35 -13 24
-8 31 -10 67 -17 15 -3 32 -8 37 -11 9 -6 57 -15 94 -19 9 -1 17 -4 17 -7 0
-3 12 -6 28 -7 15 -1 45 -4 67 -7 22 -4 68 -8 101 -10 34 -2 66 -5 70 -8 12
-6 315 -1 374 6 62 7 110 14 140 19 14 3 43 8 64 12 22 4 50 11 63 16 13 5 23
6 23 4 0 -3 16 1 36 10 19 8 38 14 42 13 4 -1 16 2 27 7 97 38 143 55 153 55
7 0 12 5 12 10 0 6 9 10 20 10 11 0 20 5 20 10 0 6 9 10 20 10 11 0 20 5 20
12 0 6 3 9 6 5 3 -3 37 14 75 39 38 24 73 44 78 44 5 0 11 4 13 8 2 5 29 28
61 51 82 60 258 235 301 300 20 29 36 64 36 77 0 37 -35 100 -175 316 -50 79
-93 142 -235 349 -25 36 -69 73 -90 74 -11 1 -20 -2 -20 -6 0 -5 -12 -15 -27
-23 -16 -8 -41 -28 -58 -43 -46 -43 -124 -104 -190 -149 -61 -42 -227 -125
-277 -139 -5 -2 -10 -4 -13 -5 -3 -1 -13 -3 -22 -5 -10 -1 -30 -5 -44 -9 -14
-4 -34 -9 -45 -11 -10 -2 -19 -4 -19 -5 0 -1 -14 -3 -32 -3 -17 -1 -35 -5 -39
-9 -4 -4 -13 -3 -21 3 -7 6 -13 7 -13 2 0 -9 -132 -8 -199 2 -20 3 -49 7 -66
9 -16 3 -49 11 -73 20 -23 8 -43 15 -45 15 -8 -1 -46 17 -69 33 -14 10 -33 18
-42 18 -9 0 -16 5 -16 10 0 6 -7 10 -15 10 -8 0 -15 5 -15 10 0 6 -7 10 -15
10 -8 0 -20 9 -27 20 -7 11 -17 20 -21 20 -13 0 -88 79 -143 150 -134 175
-203 391 -209 655 -4 153 11 280 47 399 30 101 99 244 136 284 6 7 12 17 12
22 0 4 37 46 83 93 73 75 181 157 207 157 6 0 10 5 10 11 0 5 4 8 9 4 5 -3 12
-1 16 5 3 5 15 10 26 10 10 0 19 4 19 8 0 5 6 9 13 9 6 1 32 7 57 15 25 8 54
14 63 12 9 -1 17 1 17 5 0 4 20 7 45 6 25 0 45 2 45 6 0 8 32 5 48 -5 6 -4 12
-3 12 3 0 9 49 5 59 -4 2 -2 11 0 21 5 10 5 20 6 24 3 4 -4 19 -8 34 -9 44 -3
94 -13 132 -24 19 -6 42 -13 50 -15 8 -2 29 -9 45 -16 17 -6 36 -13 44 -15 8
-1 18 -9 22 -16 5 -7 9 -9 9 -5 0 9 83 -34 88 -45 2 -5 8 -8 14 -8 17 0 160
-104 215 -157 13 -13 26 -23 29 -23 3 0 19 -14 36 -31 94 -93 128 -87 211 36
38 57 187 303 187 309 0 2 23 42 50 91 69 119 140 269 140 295 0 57 -114 186
-265 299 -38 29 -77 58 -86 64 -15 12 -35 23 -81 50 -13 6 -31 19 -42 27 -10
8 -20 14 -22 13 -4 -3 -76 29 -84 37 -7 7 -73 32 -87 33 -7 0 -13 4 -13 9 0 4
-3 7 -7 7 -5 -1 -11 0 -15 1 -5 1 -11 3 -15 5 -5 1 -16 5 -25 8 -10 4 -26 10
-35 14 -10 3 -22 5 -27 4 -4 -1 -14 4 -22 10 -8 6 -14 8 -14 4 0 -4 -7 -2 -15
5 -8 7 -15 10 -15 7 0 -3 -17 -1 -37 5 -21 6 -47 12 -58 13 -11 2 -29 5 -40 8
-39 9 -111 20 -146 22 -20 1 -40 4 -45 7 -5 3 -26 4 -47 4 -20 -1 -37 3 -37 8
0 5 -7 3 -15 -4 -8 -7 -15 -9 -15 -4 0 7 -276 14 -283 7z"/>
<path d="M3127 10744 c-6 -6 -98 -12 -249 -17 -27 -1 -48 -4 -48 -7 0 -3 -13
-5 -30 -5 -16 0 -30 4 -30 9 0 5 -6 4 -13 -2 -6 -6 -27 -9 -45 -8 -17 1 -32
-3 -32 -8 0 -6 -4 -5 -9 3 -5 7 -11 9 -14 4 -3 -5 -27 -8 -54 -8 -26 1 -56 -2
-65 -7 -12 -6 -18 -5 -18 2 0 7 -5 8 -12 3 -7 -4 -38 -8 -68 -9 -30 -1 -55 -3
-55 -3 0 -1 -54 -4 -120 -6 -66 -2 -129 -6 -140 -8 -11 -3 -25 0 -32 5 -7 6
-14 5 -18 -2 -5 -8 -11 -8 -21 1 -9 7 -19 8 -26 3 -15 -11 -38 -11 -55 -1 -6
4 -15 3 -18 -3 -5 -8 -11 -7 -21 1 -11 9 -14 9 -14 -1 0 -10 -3 -10 -14 -1
-10 8 -16 9 -21 1 -3 -6 -12 -7 -18 -3 -17 10 -47 11 -47 1 0 -5 -5 -6 -11 -2
-11 6 -216 11 -809 18 -217 2 -297 -5 -285 -25 4 -5 1 -9 -5 -9 -8 0 -10 -27
-5 -92 8 -134 15 -250 20 -358 2 -52 7 -129 10 -170 3 -41 7 -120 10 -175 3
-55 8 -138 11 -185 3 -47 7 -119 9 -160 2 -41 8 -140 12 -220 10 -188 10
-1029 -1 -1325 -13 -387 -15 -459 -22 -802 -6 -299 -5 -335 10 -358 9 -14 23
-25 31 -25 8 0 15 -4 15 -8 0 -4 10 -9 23 -10 25 -3 62 -10 62 -12 0 -2 104
-9 211 -14 51 -2 97 -7 103 -10 6 -4 11 -2 11 5 0 8 4 8 13 1 7 -6 18 -7 26
-2 8 4 20 6 27 3 25 -9 159 -9 172 0 6 5 12 6 12 1 0 -9 311 -10 368 -1 34 6
106 53 98 65 -2 4 -7 61 -11 127 -3 66 -8 136 -10 155 -2 19 -6 91 -10 160 -3
69 -8 150 -10 180 -18 254 -26 719 -14 757 11 36 55 67 109 78 60 13 903 5
917 -8 3 -4 12 -2 20 4 7 6 13 8 13 3 0 -5 28 -10 63 -11 71 -2 212 -11 212
-13 0 -2 38 -7 85 -11 83 -6 105 28 118 182 12 142 7 608 -7 694 -18 107 -38
153 -70 159 -37 7 -264 0 -636 -20 -222 -11 -277 -13 -445 -14 -216 0 -250 1
-250 12 0 4 -3 7 -7 7 -47 -8 -97 62 -119 164 -16 81 -10 242 13 298 36 89 60
107 158 115 119 10 325 10 325 -1 0 -6 3 -6 8 0 6 9 26 12 35 6 1 -1 45 -4 97
-6 52 -2 140 -6 195 -10 55 -4 116 -8 135 -9 19 -1 40 -4 45 -7 6 -2 40 -4 77
-4 38 0 68 -2 68 -5 0 -3 25 -5 55 -4 31 0 58 -3 61 -8 3 -4 13 -4 23 2 10 5
21 7 24 3 8 -7 102 -13 272 -17 116 -2 131 -1 143 16 7 10 11 21 9 26 -3 4 -8
45 -12 92 -3 46 -8 87 -11 91 -2 4 -8 38 -14 75 -19 129 -21 139 -26 162 -2
12 -7 111 -10 220 -4 123 -11 209 -19 228 -22 52 -70 68 -215 69 -69 1 -135
-2 -146 -6 -12 -4 -26 -3 -31 2 -5 5 -12 6 -16 3z"/>
<path d="M26757 9623 c-1 -1 -27 -4 -57 -8 -91 -9 -115 -13 -117 -15 -2 -1
-11 -3 -20 -5 -29 -3 -159 -39 -223 -61 -8 -3 -16 -5 -17 -5 -1 0 -37 -19 -80
-41 -43 -22 -88 -46 -100 -52 -13 -6 -23 -14 -23 -18 0 -5 -6 -8 -14 -8 -8 0
-21 -6 -28 -13 -7 -7 -33 -28 -58 -47 -46 -35 -177 -165 -218 -216 -141 -178
-257 -436 -287 -639 -4 -22 -8 -52 -11 -66 -13 -85 -16 -129 -18 -269 -4 -373
92 -689 283 -930 46 -58 164 -177 220 -220 24 -19 49 -41 56 -47 8 -7 17 -13
21 -13 4 0 22 -11 40 -25 18 -14 37 -25 43 -25 6 0 11 -5 11 -11 0 -5 5 -7 10
-4 6 3 10 2 10 -2 0 -9 59 -37 73 -34 4 0 7 -3 7 -9 0 -5 9 -10 20 -10 11 0
20 -4 20 -8 0 -5 6 -9 13 -9 6 -1 41 -12 77 -26 36 -14 67 -25 70 -25 3 -1 12
-3 20 -5 22 -7 111 -26 145 -32 17 -3 44 -7 60 -11 17 -3 53 -7 81 -8 29 -2
56 -5 60 -8 9 -4 329 -2 329 2 0 1 25 3 55 5 30 1 55 3 55 5 0 1 16 3 35 5 40
3 107 14 132 21 9 3 26 7 38 9 12 2 30 7 40 10 10 3 28 8 39 10 26 5 204 76
211 84 3 3 11 7 18 9 7 1 31 15 54 30 22 15 51 33 64 40 34 19 168 147 183
175 11 21 10 33 -9 88 -49 141 -218 446 -286 516 l-33 34 -28 -19 c-54 -38
-229 -138 -268 -154 -80 -32 -131 -50 -155 -54 -14 -3 -32 -7 -40 -11 -8 -3
-26 -7 -40 -9 -14 -1 -45 -6 -70 -10 -50 -8 -151 -8 -220 0 -25 3 -52 6 -60 6
-22 1 -92 21 -112 31 -10 5 -27 9 -38 9 -11 0 -20 5 -20 10 0 6 -7 10 -15 10
-25 0 -124 68 -166 112 -34 37 -44 53 -79 130 -16 35 -8 45 35 43 19 -1 35 1
35 4 0 3 26 7 58 7 31 1 93 4 137 8 44 4 105 9 135 11 298 22 305 23 305 25 0
1 20 3 45 4 25 1 50 4 55 6 6 3 36 5 67 5 32 0 58 3 58 7 0 4 9 5 21 3 11 -2
31 0 45 5 18 7 23 7 18 -2 -4 -6 -3 -8 4 -4 9 5 37 9 172 21 19 2 35 4 35 5 0
1 20 3 45 5 25 1 70 5 100 9 30 3 80 8 110 11 54 6 93 12 98 15 1 2 5 3 10 4
16 4 55 29 74 48 112 112 94 518 -36 812 -67 151 -196 331 -315 439 -13 12
-33 31 -45 42 -23 23 -149 114 -181 131 -92 51 -138 73 -171 84 -22 7 -45 17
-51 23 -7 5 -13 7 -13 3 0 -3 -12 -1 -27 5 -16 6 -39 13 -53 16 -42 8 -55 11
-55 13 0 3 -38 9 -85 14 -25 3 -53 8 -63 11 -10 4 -17 2 -17 -5 0 -6 -5 -8
-12 -3 -11 6 -215 12 -221 6z m58 -723 c0 -1 17 -3 37 -5 82 -9 192 -83 262
-177 37 -49 76 -162 76 -220 0 -43 -4 -50 -26 -47 -4 0 -10 -4 -13 -10 -6 -9
-51 -17 -141 -27 -14 -1 -25 -3 -25 -4 0 -1 -18 -3 -40 -5 -22 -2 -65 -7 -95
-11 -30 -4 -76 -7 -102 -8 -27 -1 -48 -3 -48 -6 0 -3 -26 -6 -58 -7 -31 -1
-92 -3 -136 -5 -70 -3 -81 -1 -103 20 -23 21 -25 27 -19 95 3 40 10 86 15 103
29 102 122 226 205 273 45 26 136 48 180 45 17 -1 31 -3 31 -4z"/>
<path d="M5087 9583 c-2 -1 -29 -5 -62 -8 -60 -5 -78 -8 -145 -19 -48 -8 -75
-14 -75 -16 0 -1 -10 -3 -22 -6 -44 -8 -48 -9 -54 -16 -3 -5 -17 -9 -32 -10
-15 -1 -27 -6 -27 -10 0 -4 -7 -8 -15 -8 -35 0 -285 -133 -285 -151 0 -5 -6
-9 -13 -9 -7 0 -33 -18 -57 -40 -25 -22 -49 -44 -55 -49 -78 -67 -201 -226
-256 -331 -19 -36 -37 -67 -40 -70 -3 -3 -8 -14 -12 -25 -3 -11 -19 -55 -36
-99 -27 -70 -60 -195 -75 -281 -27 -151 -27 -448 -1 -600 31 -179 102 -365
193 -501 20 -31 42 -64 47 -72 36 -55 210 -234 219 -225 3 4 6 1 6 -5 0 -6 20
-25 44 -41 25 -17 50 -37 58 -44 7 -7 17 -14 21 -15 4 0 33 -17 65 -36 31 -19
64 -36 72 -38 8 -2 21 -9 28 -16 8 -7 18 -10 23 -7 5 4 9 1 9 -4 0 -6 3 -10 8
-9 8 1 34 -8 67 -23 12 -6 27 -11 35 -12 8 -2 21 -6 28 -11 7 -4 16 -5 19 -2
3 3 12 1 20 -5 7 -6 13 -8 13 -4 0 4 7 2 15 -5 8 -7 15 -10 15 -7 0 3 18 1 40
-4 49 -11 95 -19 142 -23 20 -2 42 -7 49 -11 8 -6 10 -4 4 5 -6 10 -4 11 6 4
19 -12 269 -13 293 -1 14 7 16 6 11 -4 -6 -8 -4 -10 4 -4 12 7 31 10 126 20
17 1 30 4 30 5 0 1 8 3 17 5 79 15 168 40 168 47 0 5 4 7 9 4 14 -9 220 82
265 117 6 5 25 17 41 27 60 39 69 45 99 70 106 89 236 238 299 345 55 93 138
292 152 365 2 8 10 50 19 92 19 93 30 218 30 348 0 96 -10 248 -19 272 -2 7
-7 31 -10 53 -14 101 -56 226 -118 358 -28 59 -54 107 -59 107 -4 0 -8 5 -8
11 0 33 -271 339 -300 339 -5 0 -15 6 -22 13 -21 21 -129 90 -183 117 -27 14
-52 27 -55 30 -3 3 -14 7 -25 8 -11 2 -24 7 -30 12 -5 4 -35 16 -65 26 -60 20
-61 20 -105 29 -57 13 -60 13 -60 15 0 5 -105 20 -165 25 -27 1 -54 6 -61 11
-7 4 -15 2 -17 -4 -2 -7 -9 -9 -15 -5 -11 7 -224 12 -230 6z m198 -876 c28 -2
63 -9 78 -16 16 -6 32 -11 36 -11 5 0 25 -11 45 -25 20 -13 36 -22 36 -19 0 7
87 -82 114 -116 10 -13 36 -56 56 -96 33 -64 42 -93 57 -179 2 -11 3 -58 3
-104 0 -166 -57 -308 -171 -423 -37 -38 -72 -68 -78 -68 -7 0 -23 -8 -38 -17
-25 -16 -43 -23 -70 -25 -7 -1 -13 -4 -13 -8 0 -7 -24 -9 -120 -10 -83 0 -99
2 -117 13 -7 5 -17 5 -23 2 -5 -3 -10 -1 -10 5 0 7 -7 10 -15 6 -8 -3 -15 -1
-15 5 0 6 -4 8 -9 5 -5 -3 -14 1 -21 9 -7 8 -19 15 -26 15 -8 0 -14 5 -14 12
0 6 -3 9 -6 6 -9 -10 -95 75 -134 132 -142 210 -140 509 5 709 25 35 124 127
151 141 16 8 32 19 36 25 4 5 8 6 8 1 0 -5 6 -4 13 1 15 13 50 22 107 29 25 4
46 8 48 9 2 2 11 1 20 -1 9 -2 40 -5 67 -7z"/>
<path d="M8106 9583 c-1 -2 -31 -5 -67 -9 -71 -7 -104 -11 -104 -14 0 -1 -11
-4 -25 -6 -51 -8 -75 -12 -75 -14 0 -2 -19 -7 -60 -15 -16 -3 -35 -11 -42 -17
-7 -6 -13 -7 -13 -3 0 4 -6 2 -13 -4 -8 -6 -17 -8 -20 -4 -4 3 -7 1 -7 -6 0
-7 -4 -10 -9 -6 -5 3 -26 -4 -45 -16 -20 -11 -36 -18 -36 -13 0 4 -8 0 -18 -9
-10 -10 -22 -14 -25 -10 -4 3 -7 1 -7 -5 0 -7 -5 -12 -11 -12 -11 0 -141 -82
-165 -103 -7 -7 -34 -30 -60 -52 -84 -71 -159 -157 -228 -260 -160 -240 -234
-502 -241 -845 -8 -432 116 -767 381 -1035 98 -99 166 -154 264 -212 92 -55
203 -106 255 -119 17 -4 35 -10 40 -15 6 -4 24 -10 40 -13 17 -2 30 -5 30 -6
0 -3 41 -10 72 -13 18 -1 33 -4 33 -7 0 -5 15 -8 96 -14 17 -2 37 -6 44 -11 9
-6 11 -4 5 5 -6 10 -4 11 6 4 17 -11 279 -13 285 -2 3 4 15 3 28 -2 13 -5 27
-6 30 -2 4 3 17 7 29 8 12 2 38 5 57 9 19 4 45 7 58 8 12 0 22 4 22 7 0 4 6 7
13 7 25 1 80 14 96 22 9 5 19 9 24 10 4 1 8 1 10 2 1 0 13 3 27 5 13 2 27 8
30 12 3 4 14 9 25 10 11 2 23 9 27 15 4 7 8 8 8 3 0 -5 7 -3 15 4 8 7 15 9 15
4 0 -5 4 -4 8 1 4 6 25 19 47 30 151 75 303 205 435 371 54 68 170 278 170
308 0 6 6 23 14 38 16 30 47 153 71 278 19 96 25 347 11 475 -33 332 -170 631
-385 844 -81 79 -114 108 -164 141 -20 14 -37 29 -37 33 0 5 -4 5 -10 2 -5 -3
-10 -2 -10 2 0 5 -27 22 -60 38 -33 17 -60 34 -60 38 0 5 -4 6 -9 2 -5 -3 -15
0 -23 7 -7 7 -18 14 -23 15 -6 1 -35 12 -65 23 -63 24 -59 23 -165 50 -80 21
-131 30 -192 33 -18 1 -33 5 -33 9 0 4 -11 3 -25 -2 -14 -5 -25 -6 -25 -2 0 7
-258 11 -264 5z m224 -878 c19 -2 35 -4 35 -5 0 -1 21 -7 48 -13 8 -1 26 -10
40 -20 15 -9 30 -17 35 -17 16 0 117 -102 150 -151 125 -186 139 -435 36 -642
-44 -86 -182 -227 -225 -227 -8 0 -20 -5 -26 -11 -5 -5 -21 -11 -34 -13 -13
-2 -36 -6 -51 -10 -31 -9 -127 -14 -134 -7 -2 3 -21 6 -42 7 -129 7 -303 161
-366 324 -52 132 -53 316 -4 450 68 180 217 312 382 336 16 2 31 6 33 7 3 4
46 1 123 -8z"/>
<path d="M20277 9554 c-1 -1 -29 -5 -62 -7 -33 -3 -60 -6 -60 -7 0 -1 -18 -3
-40 -5 -22 -1 -41 -4 -42 -5 -2 -1 -7 -4 -13 -5 -5 -1 -13 -4 -17 -5 -5 -1
-11 -2 -15 -1 -3 0 -30 -7 -60 -16 -29 -10 -58 -17 -64 -18 -13 0 -87 -31
-135 -56 -20 -10 -39 -16 -43 -12 -3 3 -6 2 -6 -3 0 -5 -17 -18 -37 -29 -211
-111 -411 -341 -518 -595 -29 -68 -72 -204 -81 -255 -3 -16 -9 -48 -14 -70
-18 -82 -25 -175 -25 -345 0 -221 10 -301 57 -465 40 -138 137 -333 219 -440
78 -100 239 -265 260 -265 5 0 9 -4 9 -8 0 -4 22 -21 50 -37 27 -17 50 -33 50
-37 0 -5 7 -8 16 -8 8 0 22 -7 31 -15 8 -8 19 -13 24 -10 5 4 9 1 9 -5 0 -6 4
-9 9 -6 5 4 11 2 13 -3 4 -10 140 -61 183 -68 17 -3 32 -8 35 -11 3 -4 16 -8
30 -9 48 -3 125 -12 125 -14 0 -4 201 -5 209 0 6 2 24 5 41 7 18 1 47 5 66 10
19 4 37 7 42 6 4 -1 7 3 7 10 0 6 3 9 6 5 7 -7 198 81 202 94 2 5 10 9 18 9 8
0 14 5 14 10 0 6 5 10 10 10 6 0 16 5 23 10 74 62 109 92 152 132 27 26 55 48
61 48 13 0 30 -57 39 -130 16 -134 37 -189 73 -191 21 -1 256 2 412 5 63 1
121 5 128 10 7 4 19 3 26 -3 7 -6 16 -8 19 -5 3 4 46 9 94 11 145 7 149 8 176
26 15 10 30 32 36 54 12 43 6 286 -14 638 -12 199 -14 243 -21 395 -11 252 -6
642 10 800 2 19 7 69 10 110 7 79 15 148 22 190 2 14 6 50 10 80 3 30 14 101
23 156 19 112 17 122 -34 141 -43 17 -157 46 -177 45 -10 0 -20 4 -23 9 -4 5
-11 7 -16 4 -5 -4 -14 -3 -21 1 -7 4 -24 9 -38 11 -30 4 -65 11 -65 13 0 1 -9
3 -20 5 -34 5 -88 14 -125 21 -19 4 -44 8 -55 9 -11 1 -20 3 -20 5 0 2 -15 4
-87 13 -20 3 -41 8 -47 11 -6 4 -11 1 -11 -6 0 -8 -3 -9 -8 -3 -6 9 -54 12
-95 6 -12 -2 -43 -78 -72 -173 -14 -49 -31 -88 -37 -88 -6 0 -35 25 -64 55
-30 30 -59 55 -65 55 -5 0 -7 5 -4 10 3 6 1 10 -5 10 -10 0 -21 8 -55 38 -7 6
-18 12 -23 12 -5 0 -15 7 -22 15 -7 8 -16 13 -20 10 -5 -3 -11 -1 -15 5 -8 13
-76 44 -92 41 -7 -1 -13 3 -13 9 0 6 -4 9 -9 5 -5 -3 -12 -1 -16 5 -4 6 -11 8
-16 4 -5 -3 -15 -1 -22 5 -7 5 -31 12 -52 15 -22 2 -40 5 -40 6 0 8 -290 22
-298 14z m353 -859 c30 -5 57 -9 60 -10 46 -14 153 -65 173 -84 153 -137 212
-269 206 -460 -3 -119 -31 -211 -90 -297 -83 -122 -235 -215 -356 -218 -18 -1
-33 -4 -33 -7 0 -13 -197 6 -214 20 -6 5 -15 9 -19 9 -10 0 -71 24 -77 31 -3
4 -18 13 -34 21 -54 28 -150 133 -187 205 -47 91 -60 139 -63 245 -7 189 73
354 223 465 19 14 41 25 48 25 7 0 13 4 13 8 0 11 96 40 153 46 15 2 29 5 31
7 7 7 107 3 166 -6z"/>
<path d="M17808 9544 c-3 -3 -21 -7 -39 -10 -19 -2 -45 -6 -59 -9 -68 -14 -87
-18 -105 -20 -11 -2 -20 -4 -20 -5 0 -2 -30 -8 -70 -14 -40 -7 -87 -16 -105
-21 -8 -2 -37 -7 -65 -11 -27 -3 -60 -10 -72 -15 -15 -6 -23 -5 -23 2 0 8 -4
8 -12 2 -7 -6 -23 -9 -35 -8 -13 1 -23 -1 -23 -5 0 -4 -12 -6 -27 -5 -16 1
-32 0 -37 -3 -6 -3 -24 -7 -40 -8 -17 -2 -53 -6 -81 -9 -27 -3 -57 -7 -65 -7
-20 -2 -40 -23 -45 -50 -3 -12 6 -64 20 -117 23 -91 46 -213 59 -308 10 -73
24 -194 33 -283 3 -36 7 -456 7 -935 2 -933 0 -904 51 -921 31 -10 52 -13 150
-18 50 -2 90 -5 90 -6 0 -1 19 -2 43 -3 23 -2 42 2 42 8 0 7 3 7 8 0 8 -11
121 -13 138 -3 6 4 14 4 18 1 11 -11 79 -11 94 0 7 6 12 6 12 0 0 -5 17 -8 38
-7 20 1 37 3 37 4 0 1 12 3 28 4 15 1 27 -2 27 -7 0 -4 10 -3 21 4 17 9 20 8
14 -2 -6 -8 -4 -10 4 -4 7 4 41 9 75 11 87 5 97 8 119 35 18 22 19 34 12 154
-3 71 -8 157 -11 190 -4 61 -11 463 -14 810 -2 241 18 341 80 393 22 19 90 53
90 46 0 -4 6 -2 13 3 6 6 19 11 27 11 70 6 115 11 115 12 0 1 33 3 73 4 39 0
72 -1 72 -4 0 -3 64 -6 141 -7 154 -2 191 7 205 49 4 13 9 167 9 343 1 176 5
331 8 345 4 14 10 63 14 110 14 168 7 205 -42 212 -11 2 -24 6 -30 9 -5 3 -46
4 -90 3 -103 -4 -141 -9 -230 -31 -16 -4 -34 -8 -40 -9 -5 0 -23 -7 -40 -14
-16 -7 -33 -14 -37 -14 -3 -1 -10 -4 -14 -8 -4 -5 -16 -8 -26 -8 -10 0 -18 -4
-18 -10 0 -5 -8 -10 -17 -11 -10 0 -40 -13 -68 -29 -27 -16 -75 -42 -105 -57
-30 -15 -61 -34 -68 -40 -7 -7 -17 -13 -21 -13 -4 0 -18 -9 -31 -20 -13 -11
-26 -20 -30 -20 -11 0 -29 69 -36 135 -3 33 -7 71 -9 85 -7 66 -26 111 -51
120 -30 12 -29 12 -36 4z"/>
<path d="M22485 9437 c-8 -4 -15 -6 -15 -3 0 3 -8 -1 -19 -10 -17 -15 -19 -35
-21 -238 -7 -636 -3 -742 31 -926 14 -76 62 -209 96 -262 12 -21 23 -40 23
-42 0 -16 173 -285 325 -507 121 -176 112 -164 175 -248 30 -40 60 -81 65 -90
6 -9 12 -18 15 -21 3 -3 37 -45 74 -94 116 -149 170 -202 222 -216 25 -7 56
-14 68 -14 11 -1 27 -5 34 -9 7 -5 12 -3 12 3 0 7 5 8 13 3 16 -11 477 -13
498 -2 10 5 21 3 27 -3 7 -7 12 -8 12 -2 0 6 10 10 23 11 77 4 154 37 197 86
33 37 60 69 153 187 59 75 233 316 292 405 22 33 45 65 50 71 6 6 19 27 30 47
11 20 23 37 27 37 5 0 8 5 8 11 0 6 13 29 29 52 126 183 260 442 276 532 24
137 25 907 0 1033 -2 11 -7 42 -11 69 -10 68 -31 118 -57 132 -31 16 -67 22
-67 10 0 -6 -6 -7 -12 -2 -19 11 -37 12 -44 2 -3 -6 -11 -5 -20 2 -8 6 -14 7
-14 3 0 -5 -26 -10 -57 -11 -32 -1 -96 -5 -143 -8 -47 -3 -110 -5 -140 -4
-303 7 -384 5 -402 -13 -16 -16 -23 -51 -20 -98 7 -113 13 -186 19 -240 10
-80 9 -527 -1 -629 -11 -114 -55 -226 -155 -391 -11 -19 -31 -54 -43 -77 -12
-24 -26 -43 -30 -43 -4 0 -8 -5 -8 -11 0 -15 -55 -87 -98 -126 -50 -48 -76
-44 -136 21 -85 91 -252 377 -295 503 -33 98 -45 461 -26 768 5 77 9 179 9
227 1 100 -7 113 -77 117 -22 1 -44 4 -48 7 -4 2 -10 0 -14 -5 -3 -7 -15 -7
-30 -1 -16 6 -27 6 -31 -1 -3 -5 -11 -6 -17 -2 -7 4 -74 8 -149 8 -85 0 -138
4 -138 10 0 7 -3 7 -8 0 -9 -13 -42 -16 -42 -4 0 5 -10 5 -23 0 -14 -5 -30 -5
-40 0 -11 7 -17 6 -17 -1 0 -6 -5 -8 -12 -4 -17 11 -305 12 -323 1z"/>
</g>
</svg>
